<?xml version="1.0" standalone="no"?>
<!DOCTYPE svg PUBLIC "-//W3C//DTD SVG 20010904//EN"
 "http://www.w3.org/TR/2001/REC-SVG-20010904/DTD/svg10.dtd">
<svg version="1.0" xmlns="http://www.w3.org/2000/svg"
 width="250.000000pt" height="250.000000pt" viewBox="0 0 250.000000 250.000000"
 preserveAspectRatio="xMidYMid meet">
<metadata>
Created by potrace 1.11, written by Peter Selinger 2001-2013
</metadata>
<g transform="translate(0.000000,250.000000) scale(0.100000,-0.100000)"
fill="#000000" stroke="none">
<path d="M874 2063 c-208 -75 -418 -149 -467 -167 l-87 -31 5 -35 c3 -19 7
-60 10 -90 3 -30 10 -89 15 -130 5 -41 12 -100 15 -130 6 -51 8 -71 20 -167 2
-21 14 -121 25 -223 11 -102 23 -198 25 -215 2 -16 7 -59 11 -95 4 -36 8 -72
10 -80 1 -8 3 -27 3 -42 1 -27 17 -38 176 -123 33 -18 78 -43 100 -55 22 -13
65 -36 95 -53 30 -17 89 -49 130 -72 41 -23 104 -58 141 -78 36 -20 85 -47
109 -61 l44 -25 50 28 c487 268 746 415 746 425 0 7 11 111 25 231 14 121 27
238 30 260 5 43 23 206 31 270 2 22 6 56 9 75 2 19 7 58 10 85 3 28 12 106 20
174 8 69 14 125 12 126 -1 1 -78 29 -172 63 -93 33 -267 95 -385 137 -118 43
-251 90 -296 105 l-81 28 -379 -135z m676 -758 c149 -335 274 -616 277 -622 4
-10 -20 -13 -100 -13 l-104 0 -58 143 c-32 78 -61 144 -66 147 -6 4 -445 5
-485 1 -6 -1 -36 -66 -68 -146 l-58 -146 -105 2 c-73 1 -103 5 -99 13 12 28
311 698 335 751 15 33 74 166 132 296 97 221 105 235 115 210 7 -14 134 -300
284 -636z"/>
<path d="M1220 1474 c-18 -44 -57 -136 -86 -206 l-53 -128 42 -1 c215 -3 302
1 299 13 -5 18 -142 348 -157 377 -11 23 -14 20 -45 -55z"/>
</g>
</svg>
